<svg xmlns="http://www.w3.org/2000/svg" width="1024" height="1024" viewBox="0 0 1024 1024">
  <defs>
    <radialGradient id="bg" cx="50%" cy="36%" r="70%">
      <stop offset="0" stop-color="#343d2f"/>
      <stop offset="1" stop-color="#10130f"/>
    </radialGradient>
    <linearGradient id="gold" x1="0" y1="0" x2="1" y2="1">
      <stop stop-color="#ead38d"/>
      <stop offset="1" stop-color="#a88439"/>
    </linearGradient>
  </defs>
  <rect width="1024" height="1024" rx="220" fill="url(#bg)"/>
  <path d="M512 130 836 318v388L512 894 188 706V318z" fill="none" stroke="url(#gold)" stroke-width="22"/>
  <path d="M350 730V292h192c107 0 180 58 180 151 0 69-41 119-106 139l123 148H620L514 595h-58v135zm106-226h76c51 0 82-22 82-61 0-40-31-61-82-61h-76z" fill="url(#gold)"/>
</svg>
